<svg xmlns="http://www.w3.org/2000/svg" width="87.487" height="87.559" viewBox="0 0 87.487 87.559">
  <g id="medal" transform="translate(-1428 -980.59)">
    <g id="Сгруппировать_194" data-name="Сгруппировать 194" transform="translate(1429 981.59)">
      <path id="Контур_10764" data-name="Контур 10764" d="M279.131,183.2s-.144,34.469-.144,49.239,16,36.057,36.516,36.057,48.971.065,48.971.065V222.518C364.474,200.887,345.457,183,325,183Z" transform="translate(-278.987 -183)" fill="none" stroke="#26a562" stroke-width="2"/>
    </g>
    <g id="Сгруппировать_182" data-name="Сгруппировать 182" transform="translate(1448.082 991.203)">
      <g id="Сгруппировать_175" data-name="Сгруппировать 175" transform="translate(11.109 12.225)">
        <g id="Сгруппировать_174" data-name="Сгруппировать 174" transform="translate(0)">
          <path id="Контур_10923" data-name="Контур 10923" d="M179.081,101.08a10.582,10.582,0,1,0,10.582,10.582A10.595,10.595,0,0,0,179.081,101.08Z" transform="translate(-168.499 -101.08)" fill="#26a562"/>
        </g>
      </g>
      <g id="Сгруппировать_177" data-name="Сгруппировать 177" transform="translate(1.985 44.214)">
        <g id="Сгруппировать_176" data-name="Сгруппировать 176" transform="translate(0)">
          <path id="Контур_10924" data-name="Контур 10924" d="M110.385,369.727l-.057-.052-1.348-1.22-3.173-2.871-3.45.371-2.111.226-.5.054-1.612.173L93.056,377.2l7.862.1,5.089,5.991L111.792,371Z" transform="translate(-93.056 -365.584)" fill="#26a562"/>
        </g>
      </g>
      <g id="Сгруппировать_179" data-name="Сгруппировать 179" transform="translate(22.662 44.214)">
        <g id="Сгруппировать_178" data-name="Сгруппировать 178">
          <path id="Контур_10925" data-name="Контур 10925" d="M277.688,366.409l-1.612-.173-.5-.053-2.111-.227-3.45-.371-3.173,2.871-1.348,1.22-.057.052L264.029,371l5.785,12.292L274.9,377.3l7.862-.1Z" transform="translate(-264.029 -365.584)" fill="#26a562"/>
        </g>
      </g>
      <g id="Сгруппировать_181" data-name="Сгруппировать 181" transform="translate(0)">
        <g id="Сгруппировать_180" data-name="Сгруппировать 180">
          <path id="Контур_10926" data-name="Контур 10926" d="M116.872,22.807l3.157-7.048-6.7-3.846-1.588-7.558-7.679.825L98.338,0,92.611,5.181l-7.679-.825-1.588,7.558-6.7,3.846L79.8,22.807l-3.157,7.048,6.7,3.846,1.588,7.558.585-.063,2.113-.227,2.111-.226.566-.06h0l2.3-.248L94.343,42l1.827,1.653.57.515.837.757.762.689.762-.689.837-.757.57-.515,1.421-1.284h0l2.137-1.934,3.732.4h0l.38.041.868.093h0l2.111.227.585.063,1.588-7.558,6.7-3.846ZM98.338,37.018a14.21,14.21,0,1,1,14.21-14.21A14.227,14.227,0,0,1,98.338,37.018Z" transform="translate(-76.647)" fill="#26a562"/>
        </g>
      </g>
    </g>
  </g>
</svg>
