<svg xmlns="http://www.w3.org/2000/svg" width="79.009" height="79.074" viewBox="0 0 79.009 79.074">
  <g id="poineering" transform="translate(-292.383 -947.248)">
    <path id="Контур_10764" data-name="Контур 10764" d="M279.117,183.176s-.13,31.051-.13,44.356,14.416,32.482,32.894,32.482,44.114.059,44.114.059V218.6c0-19.486-17.131-35.6-35.556-35.6Z" transform="translate(14.396 765.248)" fill="none" stroke="#26a562" stroke-width="2"/>
    <g id="Page-1" transform="translate(303.891 960.328)">
      <g id="_037---Waypoint-Flag" data-name="037---Waypoint-Flag" transform="translate(0 0)">
        <path id="Shape" d="M13.1,129.626l.953-.266a1.723,1.723,0,0,0,1.2-2.123L4.354,88.259A2.153,2.153,0,0,0,1.7,86.765l-.123.034A2.154,2.154,0,0,0,.083,89.453L10.975,128.43a1.723,1.723,0,0,0,2.123,1.2Z" transform="translate(-0.003 -77.88)" fill="#26a562"/>
        <path id="Shape-2" data-name="Shape" d="M102.792,24.062A41.267,41.267,0,0,1,93.3,17.532a.848.848,0,0,1-.241-.865A122.116,122.116,0,0,0,96.19.447c.107-.91-.384-1.178-.9-.553C85.137,12.036,67.57-2.328,57.114,8.708a3.555,3.555,0,0,1,.295.74l7.066,25.3c10.474-10.9,27.978,3.372,38.113-8.743.517-.625.616-1.767.205-1.945Z" transform="translate(-51.342 0.446)" fill="#26a562"/>
      </g>
    </g>
  </g>
</svg>
