<svg xmlns="http://www.w3.org/2000/svg" width="78.509" height="78.574" viewBox="0 0 78.509 78.574">
  <g id="reliability" transform="translate(1 1)">
    <g id="Сгруппировать_169" data-name="Сгруппировать 169" transform="translate(13.244 14.985)">
      <g id="Сгруппировать_167" data-name="Сгруппировать 167" transform="translate(0 0)">
        <g id="Сгруппировать_162" data-name="Сгруппировать 162" transform="translate(30.867 27.865)">
          <g id="Сгруппировать_161" data-name="Сгруппировать 161" transform="translate(0 0)">
            <path id="Контур_10905" data-name="Контур 10905" d="M307.99,280.262a9.577,9.577,0,1,0,0,13.544A9.577,9.577,0,0,0,307.99,280.262Zm-8.578,11.859-4.35-4.35,1.474-1.474,2.876,2.876,6.489-6.489,1.474,1.474Z" transform="translate(-291.641 -277.457)" fill="#26a562"/>
          </g>
        </g>
        <g id="Сгруппировать_164" data-name="Сгруппировать 164" transform="translate(11.615 0)">
          <g id="Сгруппировать_163" data-name="Сгруппировать 163" transform="translate(0 0)">
            <ellipse id="Эллипс_8" data-name="Эллипс 8" cx="10.384" cy="10.384" rx="10.384" ry="10.384" fill="#26a562"/>
          </g>
        </g>
        <g id="Сгруппировать_166" data-name="Сгруппировать 166" transform="translate(0 22.048)">
          <g id="Сгруппировать_165" data-name="Сгруппировать 165">
            <path id="Контур_10906" data-name="Контур 10906" d="M38.421,226.42a22.1,22.1,0,0,0-4.067-3.59c-.164-.111-.493-.325-.493-.325a14.6,14.6,0,0,1-23.722,0s-.277.181-.414.274A21.978,21.978,0,0,0,0,241.037v2.307H30.134a11.649,11.649,0,0,1,8.287-16.924Z" transform="translate(0 -222.504)" fill="#26a562"/>
          </g>
        </g>
      </g>
    </g>
    <g id="Сгруппировать_191" data-name="Сгруппировать 191">
      <path id="Контур_10764" data-name="Контур 10764" d="M279.116,183.175s-.129,30.849-.129,44.068,14.322,32.271,32.681,32.271,43.828.058,43.828.058v-41.2c0-19.36-17.019-35.368-35.325-35.368Z" transform="translate(-278.987 -183)" fill="none" stroke="#26a562" stroke-width="2"/>
    </g>
  </g>
</svg>
