<svg xmlns="http://www.w3.org/2000/svg" width="84.153" height="84.223" viewBox="0 0 84.153 84.223">
  <g id="world" transform="translate(-967.217 -979.59)">
    <g id="Сгруппировать_192" data-name="Сгруппировать 192" transform="translate(968.217 980.59)">
      <path id="Контур_10764" data-name="Контур 10764" d="M279.126,183.188s-.139,33.125-.139,47.319,15.379,34.651,35.092,34.651,47.061.062,47.061.062V220.977c0-20.788-18.275-37.977-37.931-37.977Z" transform="translate(-278.987 -183)" fill="none" stroke="#26a562" stroke-width="2"/>
    </g>
    <g id="Сгруппировать_173" data-name="Сгруппировать 173" transform="translate(980.682 991.448)">
      <g id="Сгруппировать_172" data-name="Сгруппировать 172" transform="translate(0)">
        <path id="Контур_10907" data-name="Контур 10907" d="M2.113,13.62v.9c.316-.738.664-1.455,1.036-2.159Z" transform="translate(0.196 3.093)" fill="#26a562"/>
        <path id="Контур_10908" data-name="Контур 10908" d="M16.511,11.71l-.26.275.35.293.354-.293Z" transform="translate(3.733 2.929)" fill="#26a562"/>
        <path id="Контур_10909" data-name="Контур 10909" d="M4.145,11.3l-.029-.326-.018-.2q-.617.969-1.156,1.985l.388-.47Z" transform="translate(0.403 2.696)" fill="#26a562"/>
        <path id="Контур_10910" data-name="Контур 10910" d="M11.535,5.842V5.389H10.5l-.055.218H9.814v.63h1.424Z" transform="translate(2.122 1.348)" fill="#26a562"/>
        <path id="Контур_10911" data-name="Контур 10911" d="M45.967,17.831l-.091.106.205.385C46.044,18.157,46.006,17.994,45.967,17.831Z" transform="translate(11.143 4.46)" fill="#26a562"/>
        <path id="Контур_10912" data-name="Контур 10912" d="M15.024,12.739l.541-.1L16,12.359v-.576h-.973C15.024,11.872,15.024,12.739,15.024,12.739Z" transform="translate(3.426 2.947)" fill="#26a562"/>
        <path id="Контур_10913" data-name="Контур 10913" d="M44.755,14.063c-.214-.48-.439-.954-.679-1.42l-.183.206v1.276l.561-.076Z" transform="translate(10.647 3.163)" fill="#26a562"/>
        <path id="Контур_10914" data-name="Контур 10914" d="M11.512,7.276s.054-.631,0-.631-.686.108-.686.108l-1.011.289.271.325Z" transform="translate(2.122 1.662)" fill="#26a562"/>
        <path id="Контур_10915" data-name="Контур 10915" d="M41.363,9.752,41.93,8.9C41.476,8.344,41,7.8,40.5,7.278L40.5,8.688l-1.244.63.124.414Z" transform="translate(9.486 1.821)" fill="#26a562"/>
        <path id="Контур_10916" data-name="Контур 10916" d="M13.394,9.261,12.707,9.1l-.756.363.466.958.741-.234Z" transform="translate(2.657 2.275)" fill="#26a562"/>
        <path id="Контур_10917" data-name="Контур 10917" d="M15.414,11.046v.685l.6-.143Z" transform="translate(3.523 2.763)" fill="#26a562"/>
        <path id="Контур_10918" data-name="Контур 10918" d="M14.254,10.844l-.829.343-.163.416.65.179h1.73v-.6h-.251v-.343Z" transform="translate(2.985 2.713)" fill="#26a562"/>
        <path id="Контур_10919" data-name="Контур 10919" d="M13.175,13.223l.509.273,1.225-1.713h-.956l-.668.721Z" transform="translate(2.963 2.947)" fill="#26a562"/>
        <path id="Контур_10920" data-name="Контур 10920" d="M15.991,12.288v.521l.253.363h.92v-.559l-1.1-.325Z" transform="translate(3.668 3.074)" fill="#26a562"/>
        <path id="Контур_10921" data-name="Контур 10921" d="M15.14,13.013l-.434.036-.144.631h.92l.416-.415V12.7l-.669.091Z" transform="translate(3.31 3.178)" fill="#26a562"/>
        <path id="Контур_10922" data-name="Контур 10922" d="M54.687,18.517l-.756-.83-.144-1.334-.774.423L52.6,18.41l-1.119-1.191-.046-1.125-1.079-.93-.4-.4H48.7l.4,1.118,1.506.84.261.279-.325.164.013.884-.735.306-.625-.138-.393-.556,1.018.056.276-.371-2.259-1.524-.173-.651-.919.83-.93-.191L44.4,17.656l-.28.721-.908.083-1.34.008-.8-.374L40.832,16.5l.286-.758,1.365-.3,1.486.3.183-.824-.634-.149.219-1.281,1.5-.235,1.048-1.479,1.079-.183.976.145h.359l-.2-1.389-1.184.479L46.9,9.79l-.689-.1-.13-.713.561-.611,1.334-.523.343-.614A28.878,28.878,0,0,0,34.7.53L34.351.468c-.533-.1-1.073-.161-1.616-.228A28.369,28.369,0,0,0,12.2,5.543h.246l1.213-.01.651.36,1.225.264.1.483,1.95.071-.265-.624-1.731-.049.408-.385L15.852,5.2H14.288l1.706-1.276h1.636l.769,1.06,1.276.071.769-.746.578.289L19.963,5.627s-1.466.025-1.4.025a4.727,4.727,0,0,1,.123,1.01l1.778-.049.193-.48,1.226-.074.144-.719-.72-.123.24-.65L22.1,4.4l1.924.1-1.06.964.171.745,1.106.169-.073-1.345,1.059-.554,1.876-.218,2.719,1.2V6.495l.864.215-.434.818H29.032l-.365.938L25.861,7.8l2.205-1.174-.84-.714-1.9.24-.169.173-.006,0-.025.036-.548.568-.9.078.073.451.316.13-.013.149-.736.105-.054.428-.7.036L22.43,7.46l-1.264.384L18.587,9.355l.288,1.063.72.47,1.444.2v1.641l.665-.109.615-1.28,1.535-.486V8.885l.854-.644,2.063.488-.146,1.3h.554l1.515-.745.074,1.706,1.105.674-.046,1.011-1.059.36.073.335,1.274.581-.024.7-.371.031,0-.02-1.61-.5-.069-.518h0l.47-.323v-.47L28,12.726l-.125.434-.889.136-.088-.03v.045l-.306.046-.25-.505-.29-.126h-.631l-.286.235v.523l.54.181.535.074-.12.054-.489.539-.213-.27-.471-.124-1.281,1.206.169.138-1.894,1.046-1.781,1.853L20.01,19l-1.784,1.173-.883.89.1,1.78-1.226-.573.009-1.04H12.81l-1.769.9-.766,1.415L9.97,24.668l.5,1.089,1.391.17,2.214-1.481.193.734-.675,1.276,1.686.286.169,2.6.213.036.02,0,2.078.354,1.465-1.7L21,28.4l.624.87,1.709-.1.046-.5.94.455,1.058,1.658,1.828.026.675,1.179.1,1.44L30,34.2l2.549.025.746,1.224,1.129.364-.215,1.011-1.24,1.574-.361,3.483-1.12.885-1.656-.051-.555.964.411,1.8-1.8,2.31-.579,1.06-1.72.825-1.129.174-.049.48.8.229-.1.515-.71.684.433.545.855.025-.049.66-.228.651-.071.528L26.6,55.233l-.17.551-1.723-.03-1.714-1.5L21.656,51.91l.186-2.265L20.831,48.3l.409-2.284-.6-.17V40.89s-1.685-1.276-1.78-1.276-.891-.215-.891-.215l-.168-.939-2.19-2.74.216-.986.074-1.611,1.514-1.06-.215-1.8-2.213-.166-1.734-1.974-1.225-.336-.794-.145.1-.72-1.011-.145v.409l-2.525-.625L6.776,25l.353-.639-.418,0-.123-.405.3-.15L5.59,21.911,5.314,20.2h-.65l.218,1.659,1.106,1.708-.121.675L4.928,24.1,3.775,22.133v-2.29l-1.2-.579V17.616a28.643,28.643,0,0,0-1.6,4.974l.068-.014.4-.08.235,1.129.5.8.33.378.6.235-.564.67-1.091.106H.619l.093-.975.684-.141-.058-.459-.566-.358L.725,23.85a28.987,28.987,0,0,0-.459,5.092c0,.051,0,.1,0,.154a28.928,28.928,0,0,0,51.39,18.092h-.954V45.264L49.6,43.778V41.461l-.844-.839-.073-.964,1.068-2.045L47.722,34.03,47.96,31.6l-1.826-.188-.674-.674H44.232l-.625.578H41.446l-.075.191h-1.2L37.4,28.355l.023-2.454.456-.169.171-.939H37.4l-.266-.986,3.2-2.309V19.862l1.568-.87.633.065h1.289l1.01-.543,3.248-.254v1.66l2.563.651.5.36h.471v-.9l1.479-.144,1.406,1.046h2.309l.161-.148q-.343-1.168-.783-2.3Z" transform="translate(-0.266)" fill="#26a562"/>
      </g>
    </g>
  </g>
</svg>
