<svg xmlns="http://www.w3.org/2000/svg" xmlns:xlink="http://www.w3.org/1999/xlink" width="660" height="687" viewBox="0 0 660 687"><defs><clipPath id="a"><rect width="660" height="687" transform="translate(123 4669)" fill="#fff"/></clipPath></defs><g transform="translate(-123 -4669)" opacity="0.7" clip-path="url(#a)"><g transform="translate(-171.182 4668.72)" opacity="0.124"><path d="M-2309.5,4188.216c66.1-66.118,233-89.791,324.819,2s219.5,218.858,219.5,218.858L-1971.2,4615.16c-96.8,96.83-261.968,91.793-353.527.263s-204.47-206.148-204.47-206.148S-2375.6,4254.334-2309.5,4188.216Z" transform="translate(2732.259 -3709.199)" fill="#3c704e" style="mix-blend-mode:multiply;isolation:isolate"/><path d="M-2457.217,4047.839c-1.639-93.475,97.286-229.971,227.1-232.246s309.914-5.838,309.914-5.838l5.106,291.358c2.4,136.9-115.97,252.2-245.415,254.467s-290.327,3.854-290.327,3.854S-2455.579,4141.313-2457.217,4047.839Z" transform="translate(2708.411 -3603.162)" fill="#3c704e" style="mix-blend-mode:multiply;isolation:isolate"/><path d="M-2780.684,4036.068c-63.492-68.623-80.646-236.321,14.652-324.495s227.243-210.811,227.243-210.811l197.9,213.892c92.985,100.5,81.518,265.345-13.51,353.27s-213.957,196.282-213.957,196.282S-2717.192,4104.689-2780.684,4036.068Z" transform="translate(2832.908 -3500.763)" fill="#3c704e" style="mix-blend-mode:multiply;isolation:isolate"/></g></g></svg>