<svg xmlns="http://www.w3.org/2000/svg" width="80" height="79.753" viewBox="0 0 80 79.753"><g transform="translate(-0.626 -0.819)"><path d="M47.782,40.391A15.391,15.391,0,1,0,32.391,55.782,15.408,15.408,0,0,0,47.782,40.391Zm-28.217,0a12.807,12.807,0,0,1,.591-3.848H25a24.252,24.252,0,0,0,0,7.7H20.158A12.768,12.768,0,0,1,19.565,40.391Zm7.7,0a20.637,20.637,0,0,1,.358-3.848H37.16a20.417,20.417,0,0,1,.362,3.848,20.637,20.637,0,0,1-.358,3.848H27.622a20.417,20.417,0,0,1-.362-3.848Zm5.126-12.518a13.942,13.942,0,0,1,4.088,6.105H28.3A13.776,13.776,0,0,1,32.387,27.873Zm12.83,12.518a12.807,12.807,0,0,1-.591,3.848H39.779a24.2,24.2,0,0,0,0-7.7h4.846a12.768,12.768,0,0,1,.593,3.848ZM36.484,46.8a13.765,13.765,0,0,1-4.089,6.105A13.931,13.931,0,0,1,28.307,46.8Zm-.294,5.838A17.544,17.544,0,0,0,39.177,46.8h4.3A12.878,12.878,0,0,1,36.19,52.642Zm7.292-18.664h-4.3A17.57,17.57,0,0,0,36.19,28.14,12.878,12.878,0,0,1,43.482,33.978ZM28.592,28.14A17.544,17.544,0,0,0,25.6,33.978H21.3A12.878,12.878,0,0,1,28.592,28.14ZM21.3,46.8h4.3a17.57,17.57,0,0,0,2.987,5.838A12.878,12.878,0,0,1,21.3,46.8Z" transform="translate(4.627 6.833)" fill="#26a562"/><path d="M52.867,47.791l5.863,1.466A24.655,24.655,0,0,1,36.022,63.77,25.646,25.646,0,0,1,11.464,45.924l-.39-1.224-7.33,2.348.39,1.22a33.311,33.311,0,0,0,31.888,23.2,32.606,32.606,0,0,0,30.4-20.287l6.112,1.528L67.613,33.044Zm11.969.348-.4,1.072A29.7,29.7,0,0,1,36.022,68.9,30.763,30.763,0,0,1,6.992,48.7l2.446-.784A28.206,28.206,0,0,0,36.022,66.335,27.235,27.235,0,0,0,61.7,48.856l.546-1.365L57.885,46.4l8.339-8.339L69,49.182Z" transform="translate(0.881 9.106)" fill="#26a562"/><path d="M72.324,14.18A14.06,14.06,0,0,0,63.952,19.8v-.584A16.619,16.619,0,0,0,50.02,2.772L38.3.819v9a16.815,16.815,0,0,0,.517,4.1c-.563-.028-1.126-.045-1.684-.045a32.606,32.606,0,0,0-30.4,20.287L.626,32.636,5.542,52.3,20.289,37.551l-5.863-1.466A24.652,24.652,0,0,1,37.134,21.573a26.186,26.186,0,0,1,7.052.971,16.658,16.658,0,0,0,8.048,3.721l9.154,1.525V40.811h2.565V34.137l7.725-1.783a11.491,11.491,0,0,0,8.949-11.248V12.265ZM11.459,36.486l-.546,1.365,4.358,1.09L6.931,47.281,4.152,36.161,8.32,37.2l.4-1.072A29.7,29.7,0,0,1,37.134,16.442c.859,0,1.728.046,2.592.117A16.54,16.54,0,0,0,41.252,19.3a29.014,29.014,0,0,0-4.118-.295A27.234,27.234,0,0,0,11.459,36.486ZM40.866,9.818V3.848L49.6,5.3A14.063,14.063,0,0,1,61.387,19.219v4.388l-13.2-13.2-1.814,1.814,12.56,12.56-6.278-1.047A14.063,14.063,0,0,1,40.866,9.818Zm37.2,11.288A8.934,8.934,0,0,1,71.1,29.853L66.739,30.86l7.1-7.1-1.814-1.814L63.952,30.02V27.928A11.491,11.491,0,0,1,72.9,16.679l5.161-1.19Z" transform="translate(0 0)" fill="#26a562"/></g></svg>