<svg xmlns="http://www.w3.org/2000/svg" width="60.483" height="88.068" viewBox="0 0 60.483 88.068"><g transform="translate(-80.186)"><path d="M147.132,249.934a22.616,22.616,0,1,0-22.616-22.616A22.642,22.642,0,0,0,147.132,249.934Zm0-42.652A20.036,20.036,0,1,1,127.1,227.318,20.059,20.059,0,0,1,147.132,207.282Z" transform="translate(-36.705 -169.492)" fill="#26a562"/><path d="M218.852,279.778a8.123,8.123,0,0,0,4.494,1.555v1.539a1.29,1.29,0,1,0,2.58,0v-1.639a6.593,6.593,0,0,0,5.233-5.42,5.785,5.785,0,0,0-3.983-6.618c-.41-.145-.831-.3-1.25-.457v-6.65a7.39,7.39,0,0,1,2.691.873,1.29,1.29,0,0,0,1.371-2.186,9.857,9.857,0,0,0-4.063-1.284V258.17a1.29,1.29,0,0,0-2.58,0v1.475c-.22.047-.442.1-.667.17a5.471,5.471,0,0,0-3.747,4.293,4.81,4.81,0,0,0,1.571,4.739,13.153,13.153,0,0,0,2.842,1.622v8.281a5.633,5.633,0,0,1-3.082-1.132,1.29,1.29,0,1,0-1.413,2.159Zm3.245-12.961a2.263,2.263,0,0,1-.628-2.231,2.933,2.933,0,0,1,1.878-2.273v5.293a8.481,8.481,0,0,1-1.25-.788Zm4.22,4.81a3.242,3.242,0,0,1,2.3,3.758,4.065,4.065,0,0,1-2.688,3.184v-7.081Z" transform="translate(-114.331 -212.695)" fill="#26a562"/><path d="M140.688,94.35l1.619-1.294v8.2a1.29,1.29,0,0,0,2.58,0v-8.2l1.619,1.294a1.29,1.29,0,1,0,1.611-2.016L144.4,89.366a1.29,1.29,0,0,0-1.611,0l-3.715,2.968a1.29,1.29,0,1,0,1.611,2.016Z" transform="translate(-48.36 -73.761)" fill="#26a562"/><path d="M315.495,94.148a1.29,1.29,0,0,0,1.813.2l1.619-1.294v8.2a1.29,1.29,0,0,0,2.58,0v-8.2l1.619,1.294a1.29,1.29,0,1,0,1.611-2.016l-3.715-2.968a1.29,1.29,0,0,0-1.611,0L315.7,92.335A1.29,1.29,0,0,0,315.495,94.148Z" transform="translate(-194.6 -73.762)" fill="#26a562"/><path d="M110.427,160.37a30.24,30.24,0,0,0-22.013,50.975,1.29,1.29,0,0,0,1.878-1.77,27.628,27.628,0,1,1,3.691,3.28,1.29,1.29,0,1,0-1.536,2.073,30.242,30.242,0,1,0,17.979-54.559Z" transform="translate(0 -132.785)" fill="#26a562"/><path d="M231.593,5.458,233.971,3.1l6.754,6.681H239.5a2.324,2.324,0,0,0-2.321,2.321V24.535a1.29,1.29,0,0,0,2.58,0V12.366h4.1a1.29,1.29,0,0,0,.907-2.207L234.879.373a1.29,1.29,0,0,0-1.814,0l-3.286,3.251a1.29,1.29,0,1,0,1.814,1.834Z" transform="translate(-123.544)" fill="#26a562"/><path d="M192.283,45.478h4.1V57.646a1.29,1.29,0,0,0,2.58,0V45.218a2.324,2.324,0,0,0-2.321-2.321h-1.221l.708-.7a1.29,1.29,0,1,0-1.814-1.834l-2.939,2.908a1.29,1.29,0,0,0,.907,2.207Z" transform="translate(-91.748 -33.111)" fill="#26a562"/></g></svg>