<svg xmlns="http://www.w3.org/2000/svg" width="69.389" height="65.052" viewBox="0 0 69.389 65.052"><path d="M69.389,26.164a6.106,6.106,0,0,0-6.1-6.1H57.056V18.033A2.033,2.033,0,0,0,55.023,16H14.366a2.033,2.033,0,0,0-2.033,2.033v2.033H6.1a6.106,6.106,0,0,0-6.1,6.1V62.756a6.106,6.106,0,0,0,6.1,6.1H24.53v8.132H14.366a2.033,2.033,0,1,0,0,4.066H55.023a2.033,2.033,0,0,0,0-4.066H44.859V68.855H63.29a6.106,6.106,0,0,0,6.1-6.1Zm-6.1-2.033a2.035,2.035,0,0,1,2.033,2.033V56.658H57.056V24.132ZM16.4,20.066H52.99V56.658H16.4Zm-12.333,6.1A2.035,2.035,0,0,1,6.1,24.132h6.234V56.658H4.066ZM40.793,76.986H28.6V68.855h12.2Zm24.53-14.23a2.035,2.035,0,0,1-2.033,2.033H6.1a2.035,2.035,0,0,1-2.033-2.033V60.723H65.323Z" transform="translate(0 -16)" fill="#26a562"/></svg>