<svg xmlns="http://www.w3.org/2000/svg" width="75.395" height="90.046" viewBox="0 0 75.395 90.046"><path d="M108.291,24.052l12.015-7.889a1.1,1.1,0,0,0-.011-1.85c-.356-.228-8.823-5.542-17.813-2.321C96.5,14.135,91.817,19.51,88.532,27.983c-3.286-8.477-7.97-13.853-13.95-15.994-8.98-3.215-17.434,2.1-17.79,2.324a1.1,1.1,0,0,0,0,1.857L69.061,24.01l-.188.026c-10.95,1.7-17.558,11.157-17.833,11.558a1.1,1.1,0,0,0,.888,1.726l14.01.26C58.3,45.649,58.968,57.179,59,57.673a1.1,1.1,0,0,0,1.848.737L84.306,36.766l-3.37,31.858a1.1,1.1,0,0,0,2.193.232l.795-7.514h2.4a1.1,1.1,0,0,0,0-2.205H84.157L86.763,34.5l1.812-1.672,1.688,1.562,1.309,15.568H89.615a1.1,1.1,0,0,0,0,2.205h2.143l1.307,15.543H89.238a1.1,1.1,0,0,0,0,2.205H93.25l1.592,18.932H90.7a1.1,1.1,0,0,0,0,2.205h4.328l.652,7.752H79.963l1.929-18.245h6.675a1.1,1.1,0,0,0,0-2.205H82.125l.227-2.142a1.1,1.1,0,1,0-2.193-.232L77.641,99.786a1.106,1.106,0,0,0,.638,1.12,1.132,1.132,0,0,0,.481.1H96.878a1.106,1.106,0,0,0,1.042-.736,1.133,1.133,0,0,0,.055-.481l-5.312-63.18,23.575,21.8a1.1,1.1,0,0,0,1.849-.737c.032-.49.682-11.867-6.8-19.926l13.885-.426a1.1,1.1,0,0,0,.875-1.727c-.275-.4-6.856-9.806-17.755-11.542ZM54.208,35.157a31.205,31.205,0,0,1,5.426-4.908l.14.3a1.1,1.1,0,0,0,1.992-.947l-.264-.555a21.833,21.833,0,0,1,7.709-2.828c5.178-.8,10.475.511,15.784,3.9a37.441,37.441,0,0,0-4.935.436l-.278-.832a1.1,1.1,0,1,0-2.092.7l.186.558a24.143,24.143,0,0,0-9.566,4.44ZM65.472,51.144l-.594-.835a1.1,1.1,0,1,0-1.8,1.278l.757,1.064-2.6,2.4c.232-3.747,1.385-10.98,6.587-16.25a19.382,19.382,0,0,1,2.612-2.215l.194.412a1.1,1.1,0,1,0,1.994-.941l-.307-.65a28.015,28.015,0,0,1,13.566-3.1ZM72.813,23.79l-9.572-6.116.16-.188a1.1,1.1,0,1,0-1.677-1.432l-.359.421-1.8-1.148c2.7-1.279,8.468-3.348,14.288-1.256a17.718,17.718,0,0,1,8.1,6.29l-.557.462a1.1,1.1,0,0,0,1.407,1.7l.407-.338A37.321,37.321,0,0,1,86.3,28.338,26.224,26.224,0,0,0,72.813,23.79Zm19.718.672.239.142A1.1,1.1,0,0,0,93.9,22.71l-.278-.165c2.629-4.282,5.834-7.12,9.587-8.471,5.847-2.1,11.641-.012,14.336,1.266L114.249,17.5l-.56-.793a1.1,1.1,0,0,0-1.8,1.273l.517.731-7.722,5.07A26.028,26.028,0,0,0,90.76,28.338a41.124,41.124,0,0,1,1.771-3.876Zm23.314,30.581L106.8,46.676l.207-.182a1.1,1.1,0,0,0-1.456-1.656l-.379.333-13.9-12.859q1.871.012,3.609.191l0,.01a1.1,1.1,0,1,0,2.153.474l.04-.184a21.855,21.855,0,0,1,12.168,5.987C114.434,44.044,115.6,51.286,115.845,55.043Zm.241-19.649-.025-.65a1.1,1.1,0,1,0-2.2.085l.024.633-4.886.15c-4.317-3.481-9.988-5.323-16.928-5.492a26.133,26.133,0,0,1,8.765-3.71v.078a1.1,1.1,0,1,0,2.205,0v-.41a19.413,19.413,0,0,1,4.8.134c7.346,1.128,12.7,6.276,15.062,8.973Z" transform="translate(-50.846 -10.958)" fill="#26a562"/></svg>