<svg xmlns="http://www.w3.org/2000/svg" width="98.452" height="92" viewBox="0 0 98.452 92"><g transform="translate(-70.323 -8)"><path d="M185.4,33.863a1.484,1.484,0,0,0-.188-1.573L165.926,8.548a1.484,1.484,0,0,0-2.3,0L144.332,32.29a1.484,1.484,0,0,0,1.152,2.42h8.9V98.516A1.484,1.484,0,0,0,155.871,100h17.806a1.484,1.484,0,0,0,1.484-1.484V34.709h8.9a1.484,1.484,0,0,0,1.34-.846Zm-11.727-2.122a1.484,1.484,0,0,0-1.484,1.484V97.032H157.355V33.226a1.484,1.484,0,0,0-1.484-1.484H148.6l16.173-19.9,16.173,19.9Z" transform="translate(-16.774)" fill="#26a562"/><path d="M24.026,152.594a1.484,1.484,0,0,0-2.374,0L8.3,170.4a1.484,1.484,0,0,0,1.187,2.374h5.935v32.645A1.484,1.484,0,0,0,16.9,206.9H28.774a1.484,1.484,0,0,0,1.484-1.484V172.774h5.935a1.484,1.484,0,0,0,1.187-2.374Zm4.748,17.213a1.484,1.484,0,0,0-1.484,1.484v32.645h-8.9V171.29a1.484,1.484,0,0,0-1.484-1.484H12.452l10.387-13.85,10.387,13.85Z" transform="translate(93 -117.291)" fill="#26a562"/><path d="M61.355,456H49.484A1.484,1.484,0,0,0,48,457.484v5.935a1.484,1.484,0,0,0,1.484,1.484H61.355a1.484,1.484,0,0,0,1.484-1.484v-5.935A1.484,1.484,0,0,0,61.355,456Zm-1.484,5.935h-8.9v-2.968h8.9Z" transform="translate(60.419 -364.903)" fill="#26a562"/><path d="M373.381,170.4l-13.355-17.806a1.484,1.484,0,0,0-2.374,0L344.3,170.4a1.484,1.484,0,0,0,1.187,2.374h5.935v17.806a1.484,1.484,0,0,0,1.484,1.484h11.871a1.484,1.484,0,0,0,1.484-1.484V172.774h5.935a1.484,1.484,0,0,0,1.187-2.374Zm-8.606-.594a1.484,1.484,0,0,0-1.484,1.484V189.1h-8.9V171.29a1.484,1.484,0,0,0-1.484-1.484h-4.452l10.387-13.85,10.387,13.85Z" transform="translate(-273.677 -117.291)" fill="#26a562"/><path d="M397.355,376H385.484A1.484,1.484,0,0,0,384,377.484v5.935a1.484,1.484,0,0,0,1.484,1.484h11.871a1.484,1.484,0,0,0,1.484-1.484v-5.935A1.484,1.484,0,0,0,397.355,376Zm-1.484,5.935h-8.9v-2.968h8.9Z" transform="translate(-306.258 -299.742)" fill="#26a562"/><path d="M228.434,237.952a1.484,1.484,0,0,0,2.1,0l7.419-7.419a1.484,1.484,0,0,0-2.1-2.1l-7.419,7.419a1.484,1.484,0,0,0,0,2.1Z" transform="translate(-85.193 -179.194)" fill="#26a562"/><circle cx="1.5" cy="1.5" r="1.5" transform="translate(144 50)" fill="#26a562"/><circle cx="1.5" cy="1.5" r="1.5" transform="translate(149 55)" fill="#26a562"/></g></svg>