<svg xmlns="http://www.w3.org/2000/svg" width="86.699" height="100.076" viewBox="0 0 86.699 100.076"><g transform="translate(-0.36 -21.487)"><path d="M193.066,171.046a1.537,1.537,0,0,0-.553-.019,3.67,3.67,0,0,1-3.246-3.639,1.614,1.614,0,1,0-3.228,0,6.905,6.905,0,0,0,5.077,6.649v1.614a1.614,1.614,0,1,0,3.228,0v-1.516a6.893,6.893,0,0,0-1.412-13.639,3.665,3.665,0,1,1,3.665-3.665,1.614,1.614,0,1,0,3.228,0,6.906,6.906,0,0,0-5.481-6.747v-1.469a1.614,1.614,0,1,0-3.228,0v1.568a6.892,6.892,0,0,0,1.816,13.541,3.663,3.663,0,0,1,.134,7.323Zm0,0" transform="translate(-148.214 -117.34)" fill="#26a562"/><path d="M104.2,129.9A23.407,23.407,0,1,0,127.6,106.492,23.407,23.407,0,0,0,104.2,129.9ZM127.6,109.721A20.179,20.179,0,1,1,107.424,129.9,20.178,20.178,0,0,1,127.6,109.721Zm0,0" transform="translate(-82.884 -85.005)" fill="#26a562"/><path d="M76.082,332.788l-12.645,5.974a10.3,10.3,0,0,0-8.78-5.418l-11.673-.321a12.328,12.328,0,0,1-5.305-1.37l-1.188-.616a20.951,20.951,0,0,0-19.405.02l.074-2.691a1.614,1.614,0,0,0-1.569-1.658l-12.8-.352a1.614,1.614,0,0,0-1.658,1.569L.361,356.015a1.614,1.614,0,0,0,1.569,1.658l12.8.352h.044a1.614,1.614,0,0,0,1.614-1.57l.037-1.344,3.325-1.78a5.7,5.7,0,0,1,4.257-.466l19.857,5.573c.035.01.069.018.1.026a21.256,21.256,0,0,0,4.364.45,21.538,21.538,0,0,0,9-1.963,1.5,1.5,0,0,0,.2-.11l28.791-18.623a1.615,1.615,0,0,0,.529-2.15A8.154,8.154,0,0,0,76.082,332.788Zm-72.45,21.7.684-24.862,9.572.263L13.2,354.755Zm52.244-.422a18.3,18.3,0,0,1-11.192,1.249l-19.8-5.559a8.925,8.925,0,0,0-6.654.727l-1.7.91.455-16.53a17.743,17.743,0,0,1,18.025-.962l1.188.616a15.59,15.59,0,0,0,6.7,1.731l11.674.321a7.08,7.08,0,0,1,6.729,5.642l-17.388-.48a1.614,1.614,0,1,0-.089,3.228l19.189.528h.045a1.614,1.614,0,0,0,1.613-1.57,10.243,10.243,0,0,0-.156-2.094L77.481,335.7l.038-.018a4.932,4.932,0,0,1,5.577.781Zm0,0" transform="translate(0 -260.507)" fill="#26a562"/><path d="M215.431,16.949V1.614a1.614,1.614,0,0,0-3.228,0V16.949a1.614,1.614,0,0,0,3.228,0Zm0,0" transform="translate(258.535 121.563) rotate(180)" fill="#26a562"/><path d="M275.431,48.878V41.614a1.614,1.614,0,0,0-3.228,0v7.264a1.614,1.614,0,0,0,3.228,0Zm0,0" transform="translate(306.429 153.492) rotate(180)" fill="#26a562"/><path d="M155.431,48.878V41.614a1.614,1.614,0,0,0-3.228,0v7.264a1.614,1.614,0,0,0,3.228,0Zm0,0" transform="translate(210.642 153.492) rotate(180)" fill="#26a562"/></g></svg>