<svg width="0" height="0" class="hidden">

	<symbol xmlns="http://www.w3.org/2000/svg" viewBox="0 0 31.5 31.5" id="linkedin"><path d="M29.25 0h-27A2.26 2.26 0 000 2.27v26.96a2.26 2.26 0 002.24 2.27h27.01a2.27 2.27 0 002.25-2.27V2.27A2.27 2.27 0 0029.25 0zM9.52 27H4.85V11.97h4.68V27zM7.19 9.91a2.7 2.7 0 112.7-2.7 2.7 2.7 0 01-2.7 2.7zM27.02 27h-4.67v-7.31c0-1.75-.03-3.99-2.42-3.99-2.44 0-2.8 1.9-2.8 3.86V27h-4.68V11.97h4.48v2.05H17a4.92 4.92 0 014.43-2.43c4.72 0 5.6 3.12 5.6 7.17z"/></symbol>

	<symbol xmlns="http://www.w3.org/2000/svg" viewBox="0 0 31.5 31.5" id="facebook"><path d="M28.13 0H3.38A3.38 3.38 0 000 3.38v24.75a3.38 3.38 0 003.38 3.37h9.64V20.8H8.6v-5.05h4.43v-3.84c0-4.37 2.6-6.79 6.59-6.79a26.84 26.84 0 013.9.34v4.29h-2.2a2.52 2.52 0 00-2.85 2.72v3.28h4.84l-.77 5.04h-4.06V31.5h9.65a3.38 3.38 0 003.37-3.38V3.38A3.38 3.38 0 0028.12 0z"/></symbol>

	<symbol xmlns="http://www.w3.org/2000/svg" viewBox="0 0 31.5 31.5" id="twitter"><path d="M28.13 0H3.38A3.38 3.38 0 000 3.38v24.75a3.38 3.38 0 003.38 3.37h24.75a3.38 3.38 0 003.37-3.38V3.38A3.38 3.38 0 0028.12 0zm-3.44 11.17l.01.6a13.03 13.03 0 01-13.12 13.12 13.06 13.06 0 01-7.08-2.07 9.71 9.71 0 001.11.05 9.25 9.25 0 005.72-1.97 4.62 4.62 0 01-4.3-3.2 4.97 4.97 0 002.07-.08 4.61 4.61 0 01-3.69-4.53v-.05a4.6 4.6 0 002.09.58 4.6 4.6 0 01-2.06-3.84 4.55 4.55 0 01.63-2.33 13.1 13.1 0 009.5 4.82 4.62 4.62 0 017.87-4.2 9.04 9.04 0 002.93-1.12 4.6 4.6 0 01-2.03 2.54A9.18 9.18 0 0027 8.78a9.7 9.7 0 01-2.31 2.39z"/></symbol>

	<symbol xmlns="http://www.w3.org/2000/svg" viewBox="0 0 24 24" id="envelope"><path d="M19 4H5a3 3 0 00-3 3v10a3 3 0 003 3h14a3 3 0 003-3V7a3 3 0 00-3-3zM5 6h14a1 1 0 011 1l-8 4.88L4 7a1 1 0 011-1zm15 11a1 1 0 01-1 1H5a1 1 0 01-1-1V9.28l7.48 4.57a1 1 0 001 0L20 9.28V17z"/></symbol>

	<symbol xmlns="http://www.w3.org/2000/svg" viewBox="0 0 24 24" id="phone"><path d="M12.71 16.29l-.15-.12a.76.76 0 00-.18-.09L12.2 16a1 1 0 00-.91.27c-.09.1-.16.2-.21.33a1 1 0 001.3 1.31c.12-.06.23-.13.33-.22a1 1 0 000-1.4zM16 2H8a3 3 0 00-3 3v14a3 3 0 003 3h8a3 3 0 003-3V5a3 3 0 00-3-3zm1 17a1 1 0 01-1 1H8a1 1 0 01-1-1V5a1 1 0 011-1h8a1 1 0 011 1v14z"/></symbol>

	<symbol xmlns="http://www.w3.org/2000/svg" viewBox="0 0 132 48" id="arrow-right"><path d="M106.1.9a3 3 0 014.3 0L131 21.6a3 3 0 01.9 2.4v.1a3 3 0 01-.9 2.3L110.4 47A3 3 0 01106 43L122 27H3a3 3 0 110-6h119L106.1 5.1a3 3 0 010-4.2z"/></symbol>

	<symbol xmlns="http://www.w3.org/2000/svg" viewBox="0 0 55.18 31.55" id="arrow-down"><path d="M27.6 22.04L48.46 1.15a3.93 3.93 0 015.57 0 3.98 3.98 0 010 5.59L30.4 30.4a3.94 3.94 0 01-5.43.12L1.15 6.76a3.94 3.94 0 015.57-5.59z"/></symbol>

	<symbol xmlns="http://www.w3.org/2000/svg" viewBox="0 0 32 48" id="flame"><path d="M32 26.12C32 37.98 17.78 45.65 11.3 48 11.3 30.35 0 33.18 0 21.88 0 10.02 12.99 2.35 19.48 0 19.48 17.65 32 14.82 32 26.12z"/></symbol>

	<symbol xmlns="http://www.w3.org/2000/svg" viewBox="0 0 80.99 80.99" id="play"><path d="M40.5 0a40.5 40.5 0 1040.49 40.5A40.49 40.49 0 0040.49 0zm18.89 44.41l-28.74 16.5a3.93 3.93 0 01-5.83-3.43V23.5a3.93 3.93 0 015.83-3.43l28.74 17.48a3.93 3.93 0 010 6.85z"/></symbol>

	<symbol xmlns="http://www.w3.org/2000/svg" viewBox="0 0 15.19 17.36" id="small-arrow-right"><path d="M14.39 7.28L2.45.22A1.62 1.62 0 000 1.62v14.1a1.63 1.63 0 002.45 1.4l11.94-7.05a1.63 1.63 0 000-2.8z"/></symbol>

	<symbol xmlns="http://www.w3.org/2000/svg" viewBox="0 0 38.13 44.48" id="pdf"><path d="M36.44 9.43a5.78 5.78 0 011.19 1.89 5.73 5.73 0 01.5 2.19V42.1a2.37 2.37 0 01-2.38 2.38H2.38A2.37 2.37 0 010 42.1V2.38A2.37 2.37 0 012.38 0h22.25a5.73 5.73 0 012.18.5 5.78 5.78 0 011.9 1.19zM25.42 3.38v9.33h9.33a2.71 2.71 0 00-.54-1.02l-7.77-7.77a2.71 2.71 0 00-1.02-.54zm9.53 37.93V15.89H24.63a2.37 2.37 0 01-2.38-2.38V3.18H3.18V41.3h31.77zM22.2 26.59a18.89 18.89 0 002.09 1.39 24.63 24.63 0 012.9-.18q3.65 0 4.4 1.22a1.2 1.2 0 01.04 1.29.07.07 0 01-.02.05l-.05.05v.03q-.15.94-1.77.94a10.24 10.24 0 01-2.85-.5 18.1 18.1 0 01-3.23-1.32 44.7 44.7 0 00-9.73 2.06q-3.8 6.5-6 6.5a1.44 1.44 0 01-.7-.17l-.6-.3-.15-.13a1.03 1.03 0 01-.15-.89 5.4 5.4 0 011.39-2.27 12 12 0 013.27-2.4.36.36 0 01.57.15.14.14 0 01.05.1q1.3-2.11 2.66-4.9a37.89 37.89 0 002.58-6.5 20.07 20.07 0 01-.75-3.95 9.65 9.65 0 01.16-3.17q.27-.99 1.04-.99h.55a1.05 1.05 0 01.86.37 1.98 1.98 0 01.23 1.7.54.54 0 01-.1.2.65.65 0 01.02.2v.74a32.5 32.5 0 01-.35 4.76 12.56 12.56 0 003.63 5.91zM7.9 36.79q1.3-.6 3.4-3.92a14.15 14.15 0 00-2.17 2.08 8.25 8.25 0 00-1.23 1.84zm9.88-22.84a7.38 7.38 0 00-.05 3.28l.18-1.1q0-.07.17-1.06a.56.56 0 01.1-.2.07.07 0 01-.02-.05.05.05 0 00-.02-.04.05.05 0 010-.04 1.43 1.43 0 00-.33-.9.07.07 0 01-.03.06v.05zM14.7 30.36a36.41 36.41 0 017.05-2.01 3.74 3.74 0 01-.33-.24 4.45 4.45 0 01-.4-.33 13.15 13.15 0 01-3.15-4.37 33.17 33.17 0 01-2.06 4.89l-1.12 2.06zm16.03-.4q-.6-.6-3.47-.6a9.39 9.39 0 003.07.7 2.4 2.4 0 00.45-.02q0-.03-.05-.08z"/></symbol>
</svg>