<svg width="0" height="0" class="hidden">

	<symbol xmlns="http://www.w3.org/2000/svg" viewBox="0 0 31.5 31.5" id="linkedin"><path d="M29.25 0h-27A2.26 2.26 0 000 2.27v26.96a2.26 2.26 0 002.24 2.27h27.01a2.27 2.27 0 002.25-2.27V2.27A2.27 2.27 0 0029.25 0zM9.52 27H4.85V11.97h4.68V27zM7.19 9.91a2.7 2.7 0 112.7-2.7 2.7 2.7 0 01-2.7 2.7zM27.02 27h-4.67v-7.31c0-1.75-.03-3.99-2.42-3.99-2.44 0-2.8 1.9-2.8 3.86V27h-4.68V11.97h4.48v2.05H17a4.92 4.92 0 014.43-2.43c4.72 0 5.6 3.12 5.6 7.17z"/></symbol>

	<symbol xmlns="http://www.w3.org/2000/svg" viewBox="0 0 31.5 31.5" id="facebook"><path d="M28.13 0H3.38A3.38 3.38 0 000 3.38v24.75a3.38 3.38 0 003.38 3.37h9.64V20.8H8.6v-5.05h4.43v-3.84c0-4.37 2.6-6.79 6.59-6.79a26.84 26.84 0 013.9.34v4.29h-2.2a2.52 2.52 0 00-2.85 2.72v3.28h4.84l-.77 5.04h-4.06V31.5h9.65a3.38 3.38 0 003.37-3.38V3.38A3.38 3.38 0 0028.12 0z"/></symbol>

	<symbol xmlns="http://www.w3.org/2000/svg" viewBox="0 0 31.5 31.5" id="twitter"><path d="M28.13 0H3.38A3.38 3.38 0 000 3.38v24.75a3.38 3.38 0 003.38 3.37h24.75a3.38 3.38 0 003.37-3.38V3.38A3.38 3.38 0 0028.12 0zm-3.44 11.17l.01.6a13.03 13.03 0 01-13.12 13.12 13.06 13.06 0 01-7.08-2.07 9.71 9.71 0 001.11.05 9.25 9.25 0 005.72-1.97 4.62 4.62 0 01-4.3-3.2 4.97 4.97 0 002.07-.08 4.61 4.61 0 01-3.69-4.53v-.05a4.6 4.6 0 002.09.58 4.6 4.6 0 01-2.06-3.84 4.55 4.55 0 01.63-2.33 13.1 13.1 0 009.5 4.82 4.62 4.62 0 017.87-4.2 9.04 9.04 0 002.93-1.12 4.6 4.6 0 01-2.03 2.54A9.18 9.18 0 0027 8.78a9.7 9.7 0 01-2.31 2.39z"/></symbol>

	<symbol xmlns="http://www.w3.org/2000/svg" viewBox="-23 -21 682 682.67" id="whatsapp"><path d="M544.39 93C484.5 33.07 404.89.05 320.05 0 145.25 0 2.98 142.26 2.91 317.11a316.57 316.57 0 0042.33 158.55L.25 640l168.12-44.1a316.8 316.8 0 00151.55 38.6h.13c174.79 0 317.07-142.27 317.14-317.13.03-84.75-32.92-164.42-92.8-224.36zM320.05 580.95h-.1a263.27 263.27 0 01-134.17-36.74l-9.62-5.72-99.77 26.18 26.63-97.27-6.27-9.98a262.94 262.94 0 01-40.3-140.28c.06-145.33 118.31-263.57 263.7-263.57 70.41.03 136.6 27.48 186.36 77.3s77.16 116.05 77.13 186.49c-.06 145.34-118.3 263.6-263.59 263.6zm144.59-197.42c-7.93-3.97-46.89-23.13-54.15-25.78-7.26-2.64-12.55-3.96-17.83 3.97-5.28 7.93-20.46 25.78-25.09 31.07-4.62 5.29-9.24 5.95-17.17 1.98-7.92-3.96-33.45-12.33-63.72-39.33-23.56-21.01-39.46-46.96-44.09-54.9-4.61-7.93-.04-11.8 3.48-16.16 8.58-10.66 17.17-21.82 19.8-27.1 2.65-5.3 1.33-9.93-.66-13.9-1.97-3.96-17.82-42.96-24.42-58.83-6.44-15.45-12.97-13.36-17.83-13.6-4.62-.23-9.9-.28-15.19-.28-5.28 0-13.87 1.98-21.13 9.92-7.27 7.93-27.73 27.1-27.73 66.1s28.4 76.69 32.35 81.98c3.96 5.29 55.88 85.32 135.37 119.64A453.57 453.57 0 00371.8 465c18.99 6.03 36.26 5.18 49.91 3.14 15.23-2.28 46.88-19.17 53.5-37.68 6.6-18.51 6.6-34.37 4.61-37.68-1.98-3.3-7.26-5.29-15.18-9.26zm0 0"/></symbol>

	<symbol viewBox="-21 -22 682.67 682" xmlns="http://www.w3.org/2000/svg" id="skype"><path d="M617.35 372.78c-.2 1.12-.56-1.02 0 0a304.07 304.07 0 005.03-54.79c0-40.8-7.98-80.37-23.76-117.63a301 301 0 00-64.78-96.06 300.97 300.97 0 00-96.04-64.75A300.16 300.16 0 00320.18 15.8a304 304 0 00-57.23 5.4l-.14.02A179.13 179.13 0 00178.91.25a177.7 177.7 0 00-126.5 52.41A177.77 177.77 0 000 179.16a178.8 178.8 0 0022.5 86.75 304.75 304.75 0 00-4.54 52.08c0 40.8 7.99 80.38 23.77 117.64 15.2 36 36.99 68.3 64.73 96.06a300.57 300.57 0 0096.08 64.74 299.73 299.73 0 00117.64 23.79c17.75 0 35.55-1.62 52.93-4.7a178.73 178.73 0 0088.01 23.19c47.78 0 92.69-18.58 126.48-52.4A177.65 177.65 0 00640 459.83c0-30.52-7.87-60.52-22.65-87.04zm-295.97 130.3c-107.36 0-155.4-52.79-155.4-92.35 0-20.28 14.98-34.51 35.63-34.51 45.95 0 34.05 65.97 119.77 65.97 43.89 0 68.12-23.83 68.12-48.21 0-14.67-7.23-30.93-36.13-38.05l-95.5-23.84c-76.9-19.28-90.86-60.86-90.86-99.94 0-81.15 76.4-111.61 148.15-111.61 66.1 0 144 36.53 144 85.2 0 20.87-18.06 33-38.7 33-39.2 0-32-54.28-110.98-54.28-39.2 0-60.9 17.75-60.9 43.15 0 25.35 30.96 33.44 57.83 39.57l70.68 15.69c77.43 17.25 97.06 62.45 97.06 105.03 0 65.94-50.61 115.17-152.77 115.17zm0 0"/></symbol>

	<symbol viewBox="0 0 511 511.9" xmlns="http://www.w3.org/2000/svg" id="instagram"><path d="M510.95 150.5c-1.2-27.2-5.6-45.9-11.9-62.1-6.5-17.2-16.5-32.6-29.6-45.4-12.8-13-28.3-23.1-45.3-29.5-16.3-6.3-34.9-10.7-62.1-11.9C334.65.3 325.95 0 256.45 0s-78.2.3-105.5 1.5c-27.2 1.2-45.9 5.6-62.1 11.9A124.9 124.9 0 0043.45 43c-13 12.8-23.1 28.3-29.5 45.3-6.3 16.3-10.7 34.9-11.9 62.1C.75 177.8.45 186.5.45 256s.3 78.2 1.5 105.5c1.2 27.2 5.6 45.9 11.9 62.1 6.5 17.2 16.6 32.6 29.6 45.4 12.8 13 28.3 23.1 45.3 29.5 16.3 6.3 34.9 10.7 62.1 11.9 27.3 1.2 36 1.5 105.5 1.5s78.2-.3 105.5-1.5c27.2-1.2 45.9-5.6 62.1-11.9 34.4-13.3 61.6-40.5 74.9-74.9 6.3-16.3 10.7-34.9 11.9-62.1 1.2-27.3 1.5-36 1.5-105.5s-.1-78.2-1.3-105.5zm-46.1 209c-1.1 25-5.3 38.5-8.8 47.5-8.6 22.3-26.3 40-48.6 48.6-9 3.5-22.6 7.7-47.5 8.8-27 1.2-35.1 1.5-103.4 1.5s-76.5-.3-103.4-1.5c-25-1.1-38.5-5.3-47.5-8.8a78.77 78.77 0 01-29.4-19.1c-8.5-8.3-15-18.3-19.1-29.4-3.5-9-7.7-22.6-8.8-47.5-1.2-27-1.5-35.1-1.5-103.4s.3-76.5 1.5-103.4c1.1-25 5.3-38.5 8.8-47.5a77.8 77.8 0 0119.2-29.4c8.3-8.5 18.3-15 29.4-19.1 9-3.5 22.6-7.7 47.5-8.8 27-1.2 35.1-1.5 103.4-1.5 68.4 0 76.5.3 103.4 1.5 25 1.1 38.5 5.3 47.5 8.8a78.71 78.71 0 0129.4 19.1c8.5 8.3 15 18.3 19.1 29.4 3.5 9 7.7 22.6 8.8 47.5 1.2 27 1.5 35.1 1.5 103.4s-.3 76.3-1.5 103.3zm0 0"/><path d="M256.45 124.5c-72.6 0-131.5 58.9-131.5 131.5s58.9 131.5 131.5 131.5 131.5-58.9 131.5-131.5-58.9-131.5-131.5-131.5zm0 216.8c-47.1 0-85.3-38.2-85.3-85.3s38.2-85.3 85.3-85.3a85.31 85.31 0 010 170.6zm0 0"/><path d="M423.85 119.3a30.7 30.7 0 11-61.4 0 30.7 30.7 0 0161.4 0zm0 0"/></symbol>

	<symbol viewBox="-23 -21 682 682.67" xmlns="http://www.w3.org/2000/svg" id="messenger"><path d="M317.73 0C142.34 0 .17 132.66.17 296.3c0 92.65 45.58 175.39 116.97 229.72V640l106.57-60.59a339.39 339.39 0 0094.02 13.18c175.4 0 317.56-132.66 317.56-296.3C635.29 132.67 493.13 0 317.73 0zm32.13 396.47l-81.44-85.51-155.86 85.5L283.8 215.15l82.2 84.02 154.13-84.02zm0 0"/></symbol>

	<symbol viewBox="-21 -117 682.67 682" xmlns="http://www.w3.org/2000/svg" id="youtube"><path d="M626.81 64.04a80.18 80.18 0 00-56.4-56.42c-50.09-13.7-250.42-13.7-250.42-13.7S119.67-6.08 69.6 7.1c-26.9 7.38-49.04 29.52-56.41 56.94C0 114.1 0 217.97 0 217.97S0 322.35 13.18 371.9a80.2 80.2 0 0056.41 56.41C120.19 442.02 320 442.02 320 442.02s200.32 0 250.4-13.18a80.18 80.18 0 0056.42-56.41C640 322.35 640 218.5 640 218.5s.52-104.39-13.19-154.46zM256.21 313.9V122.02l166.59 95.95zm0 0"/></symbol>

	<symbol xmlns="http://www.w3.org/2000/svg" viewBox="0 0 24 24" id="envelope"><path d="M19 4H5a3 3 0 00-3 3v10a3 3 0 003 3h14a3 3 0 003-3V7a3 3 0 00-3-3zM5 6h14a1 1 0 011 1l-8 4.88L4 7a1 1 0 011-1zm15 11a1 1 0 01-1 1H5a1 1 0 01-1-1V9.28l7.48 4.57a1 1 0 001 0L20 9.28V17z"/></symbol>

	<symbol xmlns="http://www.w3.org/2000/svg" viewBox="0 0 24 24" id="phone"><path d="M12.71 16.29l-.15-.12a.76.76 0 00-.18-.09L12.2 16a1 1 0 00-.91.27c-.09.1-.16.2-.21.33a1 1 0 001.3 1.31c.12-.06.23-.13.33-.22a1 1 0 000-1.4zM16 2H8a3 3 0 00-3 3v14a3 3 0 003 3h8a3 3 0 003-3V5a3 3 0 00-3-3zm1 17a1 1 0 01-1 1H8a1 1 0 01-1-1V5a1 1 0 011-1h8a1 1 0 011 1v14z"/></symbol>

	<symbol xmlns="http://www.w3.org/2000/svg" viewBox="0 0 132 48" id="arrow-right"><path d="M106.1.9a3 3 0 014.3 0L131 21.6a3 3 0 01.9 2.4v.1a3 3 0 01-.9 2.3L110.4 47A3 3 0 01106 43L122 27H3a3 3 0 110-6h119L106.1 5.1a3 3 0 010-4.2z"/></symbol>

	<symbol xmlns="http://www.w3.org/2000/svg" viewBox="0 0 55.18 31.55" id="arrow-down"><path d="M27.6 22.04L48.46 1.15a3.93 3.93 0 015.57 0 3.98 3.98 0 010 5.59L30.4 30.4a3.94 3.94 0 01-5.43.12L1.15 6.76a3.94 3.94 0 015.57-5.59z"/></symbol>

	<symbol xmlns="http://www.w3.org/2000/svg" viewBox="0 0 32 48" id="flame"><path d="M32 26.12C32 37.98 17.78 45.65 11.3 48 11.3 30.35 0 33.18 0 21.88 0 10.02 12.99 2.35 19.48 0 19.48 17.65 32 14.82 32 26.12z"/></symbol>

	<symbol xmlns="http://www.w3.org/2000/svg" viewBox="0 0 80.99 80.99" id="play"><path d="M40.5 0a40.5 40.5 0 1040.49 40.5A40.49 40.49 0 0040.49 0zm18.89 44.41l-28.74 16.5a3.93 3.93 0 01-5.83-3.43V23.5a3.93 3.93 0 015.83-3.43l28.74 17.48a3.93 3.93 0 010 6.85z"/></symbol>

	<symbol xmlns="http://www.w3.org/2000/svg" viewBox="0 0 15.19 17.36" id="small-arrow-right"><path d="M14.39 7.28L2.45.22A1.62 1.62 0 000 1.62v14.1a1.63 1.63 0 002.45 1.4l11.94-7.05a1.63 1.63 0 000-2.8z"/></symbol>

	<symbol xmlns="http://www.w3.org/2000/svg" viewBox="0 0 38.13 44.48" id="pdf"><path d="M36.44 9.43a5.78 5.78 0 011.19 1.89 5.73 5.73 0 01.5 2.19V42.1a2.37 2.37 0 01-2.38 2.38H2.38A2.37 2.37 0 010 42.1V2.38A2.37 2.37 0 012.38 0h22.25a5.73 5.73 0 012.18.5 5.78 5.78 0 011.9 1.19zM25.42 3.38v9.33h9.33a2.71 2.71 0 00-.54-1.02l-7.77-7.77a2.71 2.71 0 00-1.02-.54zm9.53 37.93V15.89H24.63a2.37 2.37 0 01-2.38-2.38V3.18H3.18V41.3h31.77zM22.2 26.59a18.89 18.89 0 002.09 1.39 24.63 24.63 0 012.9-.18q3.65 0 4.4 1.22a1.2 1.2 0 01.04 1.29.07.07 0 01-.02.05l-.05.05v.03q-.15.94-1.77.94a10.24 10.24 0 01-2.85-.5 18.1 18.1 0 01-3.23-1.32 44.7 44.7 0 00-9.73 2.06q-3.8 6.5-6 6.5a1.44 1.44 0 01-.7-.17l-.6-.3-.15-.13a1.03 1.03 0 01-.15-.89 5.4 5.4 0 011.39-2.27 12 12 0 013.27-2.4.36.36 0 01.57.15.14.14 0 01.05.1q1.3-2.11 2.66-4.9a37.89 37.89 0 002.58-6.5 20.07 20.07 0 01-.75-3.95 9.65 9.65 0 01.16-3.17q.27-.99 1.04-.99h.55a1.05 1.05 0 01.86.37 1.98 1.98 0 01.23 1.7.54.54 0 01-.1.2.65.65 0 01.02.2v.74a32.5 32.5 0 01-.35 4.76 12.56 12.56 0 003.63 5.91zM7.9 36.79q1.3-.6 3.4-3.92a14.15 14.15 0 00-2.17 2.08 8.25 8.25 0 00-1.23 1.84zm9.88-22.84a7.38 7.38 0 00-.05 3.28l.18-1.1q0-.07.17-1.06a.56.56 0 01.1-.2.07.07 0 01-.02-.05.05.05 0 00-.02-.04.05.05 0 010-.04 1.43 1.43 0 00-.33-.9.07.07 0 01-.03.06v.05zM14.7 30.36a36.41 36.41 0 017.05-2.01 3.74 3.74 0 01-.33-.24 4.45 4.45 0 01-.4-.33 13.15 13.15 0 01-3.15-4.37 33.17 33.17 0 01-2.06 4.89l-1.12 2.06zm16.03-.4q-.6-.6-3.47-.6a9.39 9.39 0 003.07.7 2.4 2.4 0 00.45-.02q0-.03-.05-.08z"/></symbol>
</svg>