<svg xmlns="http://www.w3.org/2000/svg" width="203.062" height="50.763" viewBox="0 0 203.062 50.763"><g transform="translate(-278.987 -183)"><path d="M300.417,190.024a11.418,11.418,0,0,1,7.842,3.413,11.182,11.182,0,0,1,3.515,7.966v14.4c-4.631-.008-10.745-.017-15.782-.017a9.794,9.794,0,0,1-6.905-3.536c-2.02-2.205-3.076-4.8-3.076-6.231,0-3.876.022-10.744.04-15.951,4.172-.023,9.582-.046,14.365-.046m0-7.024c-9.525,0-21.363.091-21.363.091s-.067,16.052-.067,22.93,7.452,16.792,17.005,16.792,22.806.03,22.806.03V201.4c0-10.074-8.856-18.4-18.381-18.4Z" fill="#f8f8f8"/><path d="M462.042,212.138a20.073,20.073,0,0,1,6.4.873,9.957,9.957,0,0,1,4.1,2.5,9.207,9.207,0,0,1,2.181,3.957,19.511,19.511,0,0,1,.64,5.178v18.038q-1.863.408-5.179.96a49.808,49.808,0,0,1-8.029.553,25.451,25.451,0,0,1-5.382-.524,11.668,11.668,0,0,1-4.16-1.716,7.848,7.848,0,0,1-2.677-3.113,10.735,10.735,0,0,1-.931-4.713,8.922,8.922,0,0,1,1.076-4.538,8.284,8.284,0,0,1,2.88-2.967,13.024,13.024,0,0,1,4.131-1.6,23.208,23.208,0,0,1,4.829-.495,27.57,27.57,0,0,1,3,.145,13.478,13.478,0,0,1,2.125.378v-.815a4.8,4.8,0,0,0-1.339-3.549q-1.339-1.338-4.654-1.338a29.7,29.7,0,0,0-4.364.32,18.773,18.773,0,0,0-3.724.9l-1.106-6.982q.755-.232,1.891-.495t2.473-.465q1.338-.2,2.823-.349T462.042,212.138Zm.7,25.369q1.278,0,2.443-.059a16.636,16.636,0,0,0,1.863-.174V230.7q-.524-.116-1.571-.233a17.642,17.642,0,0,0-1.92-.116,17.287,17.287,0,0,0-2.3.145,6.007,6.007,0,0,0-1.891.553,3.242,3.242,0,0,0-1.28,1.105,3.078,3.078,0,0,0-.465,1.746,2.972,2.972,0,0,0,1.367,2.822A7.549,7.549,0,0,0,462.74,237.507Z" transform="translate(-120.982 -20.734)" fill="#f8f8f8"/><path d="M583.683,240q0,7.505-3.811,11.142t-11.783,3.637a32.052,32.052,0,0,1-5.585-.494,34.789,34.789,0,0,1-5.179-1.309l1.513-7.273a25.454,25.454,0,0,0,4.276,1.28,25.185,25.185,0,0,0,5.092.466q3.723,0,5.266-1.629a5.85,5.85,0,0,0,1.542-4.189v-1.106a13.887,13.887,0,0,1-2.881.96,15.288,15.288,0,0,1-3.229.32q-6.342,0-9.716-3.753t-3.375-10.5a17.2,17.2,0,0,1,1.047-6.139,13.072,13.072,0,0,1,3.055-4.742,13.641,13.641,0,0,1,4.917-3.055,18.849,18.849,0,0,1,6.575-1.077q1.571,0,3.229.146t3.287.378q1.629.233,3.113.553t2.648.669Zm-19.027-12.452q0,7.274,5.877,7.273a8.671,8.671,0,0,0,2.5-.349,9.521,9.521,0,0,0,1.978-.815V219.814q-.641-.116-1.513-.2t-2.036-.087a5.967,5.967,0,0,0-5.121,2.269A9.387,9.387,0,0,0,564.656,227.553Z" transform="translate(-196.981 -21.021)" fill="#f8f8f8"/><path d="M690.743,221.064q-1.166-.29-2.735-.611a16.936,16.936,0,0,0-3.375-.32,15.772,15.772,0,0,0-1.949.145,11.524,11.524,0,0,0-1.717.32V243.99H672.3V215.013a52.157,52.157,0,0,1,5.5-1.542,31.7,31.7,0,0,1,7.069-.727q.7,0,1.687.087t1.979.233q.989.146,1.978.349a9.378,9.378,0,0,1,1.687.495Z" transform="translate(-279.869 -21.165)" fill="#f8f8f8"/><path d="M762.712,245.568h-8.67V214.962h8.67Z" transform="translate(-338.035 -22.743)" fill="#f8f8f8"/><path d="M803.569,214.287a48.423,48.423,0,0,1,5.7-1.193,46.913,46.913,0,0,1,7.331-.553,17.875,17.875,0,0,1,6.488,1.018,9.764,9.764,0,0,1,4.1,2.881,11.245,11.245,0,0,1,2.153,4.422,23.558,23.558,0,0,1,.64,5.7v17.281h-8.67V227.611q0-4.189-1.106-5.935t-4.131-1.746q-.931,0-1.978.087t-1.862.2v23.624h-8.669Z" transform="translate(-373.277 -21.021)" fill="#f8f8f8"/><path d="M912.607,185.091l8.67-1.4v9.019h10.415v7.215H921.277v10.764a8.564,8.564,0,0,0,.96,4.364q.96,1.629,3.87,1.629a16.575,16.575,0,0,0,2.88-.262,14.817,14.817,0,0,0,2.705-.727l1.222,6.75a24.551,24.551,0,0,1-3.491,1.106,20.353,20.353,0,0,1-4.713.466,15.51,15.51,0,0,1-5.877-.96,9.211,9.211,0,0,1-3.724-2.677,9.95,9.95,0,0,1-1.949-4.16,24.5,24.5,0,0,1-.553-5.411Z" transform="translate(-450.865 -0.494)" fill="#f8f8f8"/><path d="M327.284,230.454s3.649-.028,6.586-.028a5.817,5.817,0,0,1,5.667,5.673v6.61s-4.086-.009-7.031-.009-5.243-3.056-5.243-5.177S327.284,230.454,327.284,230.454Z" transform="translate(-34.352 -33.747)" fill="#f8f8f8"/></g></svg>